# xmcd CD database file
#
# Track frame offsets:
#	150
#	10175
#	22662
#	33900
#	43850
#	59550
#	73200
#	87587
#	98362
#	108562
#	123800
#	133400
#	148562
#	161075
#	175137
#	190462
#	200412
#	214662
#	231409
#	248638
#	262849
#	277080
#	293074
#	304856
#	314674
#	325730
#	338616
#
# Disc length: 4872 seconds
#
# Revision: 0
# Processed by: cddbd v1.5.1PL0 Copyright (c) Steve Scherf et al.
# Submitted via: CDex 1.51
#
DISCID=9013061b
DTITLE=Blossom Dearie - Blossom Dearie - My Gentleman Friend
DYEAR=1900
DGENRE=Jazz
TTITLE0=01-'Deed I Do
TTITLE1=02-Loverman
TTITLE2=03-Everything I've Got
TTITLE3=04-Comment Allez Vous
TTITLE4=05-More Than You Know
TTITLE5=06-Thou Swell
TTITLE6=07-It Might As Well Be Spring
TTITLE7=08-Tout Doucement
TTITLE8=09-You For Me
TTITLE9=10-Now At Last
TTITLE10=11-I Hear Music
TTITLE11=12-Wait Till You See Her
TTITLE12=13-I Won't Dance
TTITLE13=14-A Fine Spring Morning
TTITLE14=15-They Say It's Spring (previously unreleased)
TTITLE15=16-Johnny One Note (previously unreleased)
TTITLE16=17-Blossom's Blues (previously unreleased)
TTITLE17=01-Little Jazz Bird
TTITLE18=02-Gentleman Friend
TTITLE19=03-It's Too Good to Talk About Now
TTITLE20=04-Chez Moi
TTITLE21=05-You Fascinate Me So
TTITLE22=06-You've Got Something I Want
TTITLE23=07-Boum
TTITLE24=08-L'Etang
TTITLE25=09-Hello Love
TTITLE26=10-Someone to Watch Over Me
EXTD=
EXTT0=
EXTT1=
EXTT2=
EXTT3=
EXTT4=
EXTT5=
EXTT6=
EXTT7=
EXTT8=
EXTT9=
EXTT10=
EXTT11=
EXTT12=
EXTT13=
EXTT14=
EXTT15=
EXTT16=
EXTT17=
EXTT18=
EXTT19=
EXTT20=
EXTT21=
EXTT22=
EXTT23=
EXTT24=
EXTT25=
EXTT26=
PLAYORDER=
